<?xml version="1.0" encoding="UTF-8"?>
<svg width="349px" height="448px" viewBox="0 0 349 448" version="1.1" xmlns="http://www.w3.org/2000/svg" xmlns:xlink="http://www.w3.org/1999/xlink">
    <title>(A) Purple</title>
    <defs>
        <path d="M205.907809,0.0287520799 L133.849136,191.696506 L72.0841049,191.696506 L0.305185185,0.0287520799 L56.0650617,0.0287520799 L65.5035494,27.6147754 L140.709444,27.6147754 L150.147932,0.0287520799 L205.907809,0.0287520799 Z M127.26858,70.7173378 L78.6614815,70.7173378 L102.965031,142.846722 L127.26858,70.7173378 Z" id="path-1"></path>
        <path d="M314.028645,342.272 C280.332784,382.264738 229.893855,407.689532 173.5,407.689532 C117.106145,407.689532 66.6672161,382.264738 32.9713553,342.272 L4.40423077,370.835972 C45.4754304,418.082496 105.977995,448 173.5,448 C241.022005,448 301.52457,418.082496 342.595769,370.835972 L314.028645,342.272 Z M173.5,40.3104681 C232.331117,40.3104681 284.667106,67.9943262 318.286703,111.002326 L346.987289,82.3049078 C305.903379,32.0748936 243.452912,0 173.5,0 C103.547088,0 41.0966209,32.0748936 0.0127106227,82.3049078 L28.7132967,111.002326 C62.3328938,67.9943262 114.668883,40.3104681 173.5,40.3104681 Z" id="path-3"></path>
    </defs>
    <g id="(A)-Purple" stroke="none" stroke-width="1" fill="none" fill-rule="evenodd">
        <g id="g18" transform="translate(173.000000, 224.000000) rotate(180.000000) translate(-173.000000, -224.000000) translate(70.000000, 128.000000)">
            <g id="g20-Clipped" transform="translate(-0.000000, 0.000000)">
                <mask id="mask-2" fill="white">
                    <use xlink:href="#path-1"></use>
                </mask>
                <use id="path22" fill="#9B9B9B" xlink:href="#path-1"></use>
            </g>
        </g>
        <g id="g32-Clipped" transform="translate(-0.000000, 0.000000)">
            <mask id="mask-4" fill="white">
                <use xlink:href="#path-3"></use>
            </mask>
            <use id="path34" fill="#9B9B9B" xlink:href="#path-3"></use>
        </g>
    </g>
</svg>